<svg width="1200" height="179" viewBox="0 0 1200 179" fill="none" xmlns="http://www.w3.org/2000/svg">
<path d="M684.06 6.12983C688.478 6.106 695.257 5.27259 699.364 6.90798C704.228 8.84206 731.644 100.022 737.696 113.994C738.388 115.593 739.091 117.275 740.755 117.931C741.634 116.941 745.952 102.915 746.761 100.527L767.023 42.0224C769.964 33.4075 775.501 15.1259 779.327 7.66964C781.472 5.39811 802.577 5.39255 804.066 6.98193C808.993 12.24 811.513 25.4464 813.909 32.2557L836.579 95.7665C838.068 99.8207 841.864 115.14 844.958 117.345C847.782 116.285 851.14 100.568 852.581 96.3023L874.548 33.0748C876.716 26.8357 881.146 11.5741 883.859 6.89847C888.493 6.20613 904.595 5.33236 908.486 7.06104C908.925 8.20347 908.585 10.8714 908.157 11.9743C902.228 27.3929 898.12 46.2489 891.652 61.2254C887.023 70.9888 883.091 86.7408 879.318 97.3599C870.939 120.961 863.163 144.917 855.312 168.672C853.935 172.831 838.507 173.381 835.654 169.698C829.659 158.94 796.665 51.5814 791.866 48.9447C789.558 52.6145 782.972 73.4684 781.232 78.3906L748.894 171.616C744.868 171.916 733.847 172.503 730.718 170.579C727.612 163.251 725.954 156.831 723.394 149.437L707.456 102.962L686.544 41.4085C685.038 37.0167 674.872 10.1333 675.657 7.99278C678.083 5.91286 680.655 6.29111 684.06 6.12983Z" fill="#A12025"/>
<path d="M1064.24 5.4389L1130.3 5.39328C1138.08 5.38348 1146.01 5.63406 1153.75 5.396C1171.65 4.84532 1194.05 19.3831 1195.42 38.5857C1193.56 49.3334 1195.12 60.6221 1195.45 71.2564C1192.34 80.3748 1191.9 81.4899 1185.88 89.0073C1189.01 95.9097 1194.87 100.55 1195.42 110.298C1193.68 116.594 1194.87 135.987 1195.47 142.94C1194.5 145.172 1193.85 148.102 1192.87 149.991C1186.32 162.651 1176.37 172.155 1161.5 172.28C1132.72 172.522 1104.09 172.387 1075.32 172.376C1071.37 172.38 1067.42 172.482 1063.49 172.03C1063.34 165.947 1064.04 153.06 1063.07 147.803L1119.66 147.433C1131.19 147.364 1145.24 147.983 1156.17 146.162C1172.43 143.452 1179.54 119.75 1167.14 108.372C1161.04 102.774 1157.17 102.529 1149.11 102.412C1141.68 102.306 1134.46 102.398 1127.16 102.403C1105.97 102.534 1084.78 102.507 1063.59 102.323C1063.37 94.034 1063.56 84.9173 1063.58 76.5648C1093.39 75.1469 1124.55 77.819 1154.47 76.1434C1163.44 76.6593 1174.45 63.7906 1174.15 54.9404C1173.23 28.4601 1148.61 31.3985 1133.03 31.3854L1089.23 31.4238C1081.62 31.4375 1070.76 31.7977 1063.55 31.0369C1063.48 24.7389 1063.06 10.7568 1064.24 5.4389Z" fill="#A12025"/>
<path d="M552.859 90.074C548.283 84.9857 535.503 67.4713 530.828 60.978C520.144 46.1354 501.883 24.5808 493.108 9.37763L493.855 8.24494C495.965 7.22399 499.246 7.74379 501.677 7.93183C508.907 8.53327 520.782 7.70541 526.366 8.49507C534.911 15.8869 567.095 65.7811 572.967 67.3492C575.949 65.6707 610.599 15.9119 617.068 8.76609C628.13 8.50675 640.071 8.72102 651.21 8.70758C648.222 17.3093 601.47 76.8215 592.236 89.77C596.712 97.2176 606.128 109.353 611.601 116.533C620.56 128.108 629.361 139.807 638.003 151.625C640.611 155.149 650.747 167.223 649.927 170.636C646.939 172.189 623.261 171.578 618.187 171.557C613.089 167.653 588.919 132.129 582.931 125.453C580.733 123.001 576.612 115.565 573.299 112.406C570.481 112.975 569.979 114.459 568.248 116.754C554.678 134.763 541.653 153.729 527.318 171.057C525.912 172.756 495.681 173.558 493.78 170.892C494.85 165.834 546.004 99.6115 552.859 90.074Z" fill="#A12025"/>
<path d="M290.814 7.76465C295.171 8.47273 307.873 8.56651 312.346 7.90374L315.02 9.29014C315.429 11.8736 315.363 14.5218 315.346 17.141C315.219 35.9481 315.539 54.7767 315.174 73.5774C315.147 74.993 314.636 76.7302 314.093 78.043C314.954 79.1523 317.04 79.5073 318.249 79.4193C327.165 78.7725 396.319 80.7398 399.28 78.9234L399.605 77.489C396.714 58.5142 399.591 33.1849 398.768 13.696C398.663 11.1955 399.314 9.47583 401.165 7.89441C405.018 8.37313 419.102 8.67643 422.823 7.94676C423.955 8.62438 425.943 9.50682 425.997 10.7318C426.589 24.3217 426.324 40.629 426.321 54.1151L426.303 124.171C426.311 136.401 427.578 162.098 424.943 172.586C417.443 173.062 407.304 173.212 399.802 172.465C397.646 162.816 399.249 104.3 398.747 103.657C394.034 102.18 381.059 103.007 375.021 102.99L325.433 103.014L333.072 102.226C328.938 102.099 316.953 101.182 314.049 103.846C316.029 110.088 316.52 166.282 313.982 171.152C313.672 171.746 313.034 171.979 312.41 172.17C307.139 173.789 295.019 172.748 289.235 172.361L289.495 165.128C290.121 158.936 289.757 145.384 289.76 138.624L289.77 87.702L289.757 35.7192C289.754 30.7909 290.037 13.0003 289.083 9.25223L290.814 7.76465Z" fill="#A12025"/>
<path d="M133.216 7.52734C138.521 7.71614 143.625 8.0789 148.996 8.05572C187.649 7.88898 226.385 8.6017 265.011 7.69472C265.966 7.6723 266.702 8.01194 267.461 8.51871C268.252 11.0938 267.961 29.3545 267.206 32.2336C262.743 35.1524 220.886 30.5892 214.128 34.0278C214.097 34.0436 213.185 35.136 213.054 35.2884C213.855 42.3222 213.201 63.8047 213.199 71.8867L213.221 134.568C213.223 145.936 212.931 159.043 213.366 170.242C212.814 171.597 213.078 171.18 211.847 172.047C207.509 172.175 192.668 172.593 189.448 171.187C188.649 169.497 188.24 165.303 188.224 163.278C187.942 127.112 188.154 90.9341 188.119 54.7644C188.112 47.7124 187.74 39.7864 189.18 32.9254C180.48 32.9444 139.928 33.7569 134.361 32.1012C132.519 29.9856 133.252 12.1973 133.216 7.52734Z" fill="#A12025"/>
<path d="M467.47 8.00586C468.758 8.0524 470.073 7.93015 471.01 8.78595C472.779 13.0402 471.58 20.3785 471.621 25.1813L471.696 85.0914C471.699 97.0152 472.923 164.812 470.413 171.93C467.621 173.878 450.789 172.673 446.986 172.47C446.212 166.064 446.582 151.396 446.579 144.33L446.567 91.5131L446.572 37.6987C446.574 30.2392 446.165 15.9015 446.945 9.07499L448.215 8.16256C451.363 8.21978 465.284 8.58823 467.47 8.00586Z" fill="#A12025"/>
<path d="M931.466 78.6436C934.624 76.7338 959.31 77.4633 964.847 77.4698L1014.23 77.5314C1019.22 77.5555 1036.36 76.9322 1039.89 77.6177C1041.29 79.0045 1041.55 81.095 1041.3 82.9894C1040.78 86.9873 1042.52 100.306 1040.37 103.016C1034.88 104.4 999.142 103.655 991.243 103.747C974.351 103.944 954.481 103.482 937.319 103.748C936.077 103.767 933.417 103.467 932.409 102.719C932.233 102.591 931.677 101.195 931.53 100.863C933.663 95.0253 932.456 84.7149 931.466 78.6436Z" fill="#A12025"/>
<path d="M932.843 146.907C954.183 146.207 977.867 147.314 999.482 146.86C1007.69 146.687 1034.12 146.457 1040.3 147.463C1041.68 149.04 1041.85 169.309 1041.17 172.094C1028.85 172.065 934.871 172.631 932.55 171.316C932.005 168.35 931.689 148.728 932.843 146.907Z" fill="#A12025"/>
<path d="M931.41 8.32264C934.68 5.75779 953.887 6.80959 958.984 6.83735L998.682 6.86411L1026.61 6.8502C1029.27 6.84598 1036.74 6.59673 1038.82 6.862C1039.14 6.90296 1039.46 6.95173 1039.79 7.00837C1041.98 9.9962 1041.28 25.7207 1041.89 31.4039C1031.89 30.1377 1018.18 30.5634 1007.81 30.5716L955.826 30.6475C951.15 30.6598 934.92 31.1541 931.609 30.6705L931.65 29.0318C933.197 23.7827 933.045 13.5992 931.41 8.32264Z" fill="#A12025"/>
<path d="M213.366 170.243C212.932 159.044 213.223 145.937 213.222 134.57L213.199 71.8883C213.201 63.8063 213.855 42.3239 213.055 35.29C214.437 37.6794 216.066 37.2756 216.135 38.9705C216.426 46.1516 216.332 53.3743 216.335 60.5644L216.341 105.214L216.327 149.914C216.325 153.195 216.513 167.37 215.959 169.941C215.506 169.987 213.68 170.142 213.366 170.243ZM215.217 167.137C215.697 166.553 215.785 165.663 215.78 164.914C215.533 123.714 216.188 82.4528 215.567 41.2679C215.561 40.8943 215.377 40.1301 215.278 39.7551C214.33 47.2981 214.762 60.1383 214.781 68.1704L214.893 117.654L214.739 152.02C214.75 155.575 214.562 163.925 215.217 167.137Z" fill="#461B2C" fill-opacity="0.27451"/>
<path d="M215.277 39.7539C215.377 40.1289 215.561 40.893 215.567 41.2667C216.188 82.4516 215.533 123.713 215.779 164.913C215.784 165.662 215.697 166.552 215.216 167.136C214.562 163.924 214.75 155.573 214.738 152.019L214.892 117.653L214.781 68.1692C214.762 60.1371 214.329 47.2969 215.277 39.7539Z" fill="#461B2C" fill-opacity="0.305882"/>
<path d="M289.496 165.127C288.584 164.93 288.445 164.748 287.78 164.073C286.969 160.341 287.279 126.922 287.277 120.997L287.28 61.7675C287.287 47.7179 287.09 33.2354 287.593 19.2001C287.688 16.5617 288.735 12.2631 289.084 9.25098C290.038 12.9991 289.756 30.7896 289.759 35.7179L289.771 87.7008L289.761 138.623C289.758 145.383 290.123 158.935 289.496 165.127Z" fill="#461B2C" fill-opacity="0.203922"/>
<path d="M931.612 30.6703C934.923 31.1539 951.153 30.6596 955.829 30.6473L1007.81 30.5714C1018.18 30.5632 1031.89 30.1375 1041.89 31.4037C1037.81 34.4431 946.606 31.9233 935.415 32.3721C933.704 32.441 932.679 31.975 931.612 30.6703Z" fill="#461B2C" fill-opacity="0.968627"/>
<path d="M314.094 78.0413C324.307 77.806 394.48 79.1435 399.606 77.4873L399.281 78.9217C396.32 80.7381 327.166 78.7708 318.25 79.4176C317.041 79.5056 314.956 79.1505 314.094 78.0413Z" fill="#461B2C" fill-opacity="0.968627"/>
<path d="M314.049 103.845C316.953 101.181 328.937 102.098 333.071 102.225L325.433 103.013L375.02 102.99C381.059 103.007 394.033 102.179 398.747 103.656C392.301 104.404 377.464 104.01 370.281 104.012L314.049 103.845Z" fill="#461B2C" fill-opacity="0.968627"/>
<path d="M401.164 7.89455L398.915 7.61818L399.154 6.61032C405.002 4.53434 419 4.58474 424.973 6.31747L425.511 7.05178C424.707 7.7399 423.864 7.77523 422.822 7.9469C419.101 8.67657 405.017 8.37327 401.164 7.89455Z" fill="#461B2C" fill-opacity="0.0196078"/>
<path d="M501.678 7.932C502.554 7.49002 503.238 7.24171 503.769 6.40229C508.156 5.01453 523.795 4.55513 527.627 6.48334C527.691 6.51585 527.754 6.54971 527.816 6.58498L527.922 7.52253C527.495 7.81967 526.827 8.32393 526.367 8.49524C520.783 7.70558 508.908 8.53344 501.678 7.932Z" fill="#451C2E" fill-opacity="0.0431373"/>
<path d="M1195.42 110.295C1198.33 114.647 1197.33 134.013 1196.34 139.058C1196.08 140.358 1195.79 141.651 1195.47 142.937C1194.87 135.983 1193.68 116.59 1195.42 110.295Z" fill="#461B2C" fill-opacity="0.682353"/>
<path d="M1063.49 172.028L1062.31 172.446C1059.76 169.997 1059.87 151.256 1061.96 148.515L1062.47 152.543C1062.57 150.638 1062.7 149.674 1063.07 147.801C1064.05 153.058 1063.34 165.946 1063.49 172.028Z" fill="#461B2C" fill-opacity="0.0117647"/>
<path d="M1195.42 38.583C1198.44 45.9735 1197.45 63.3496 1195.45 71.2537C1195.12 60.6194 1193.56 49.3308 1195.42 38.583Z" fill="#461B2C" fill-opacity="0.682353"/>
<path d="M290.813 7.76306L293.37 7.28329L293.356 5.96186C295.779 4.52481 313.698 4.97747 315.245 6.60045L314.874 7.26198C312.543 7.37085 311.209 7.25887 308.904 7.04484L312.346 7.90216C307.872 8.56493 295.171 8.47114 290.813 7.76306Z" fill="#461B2C" fill-opacity="0.0392157"/>
<path d="M448.214 8.1627L449.638 7.30485L448.64 6.27985C450.924 4.86118 465.775 3.93601 467.672 6.92038L467.469 8.006C465.283 8.58836 451.362 8.21992 448.214 8.1627Z" fill="#461B2C" fill-opacity="0.0588235"/>
<path d="M931.464 78.6416C932.455 84.7129 933.662 95.0233 931.529 100.861C928.869 97.1326 930.345 83.1577 931.464 78.6416Z" fill="#461B2C" fill-opacity="0.435294"/>
<path d="M931.413 8.32422C933.048 13.6008 933.201 23.7843 931.654 29.0334C929.163 25.7015 929.919 12.2258 931.413 8.32422Z" fill="#461B2C" fill-opacity="0.439216"/>
<path d="M111.869 79.6445L112.514 80.1927C114.563 85.1155 114.027 95.7187 113.34 101.103C109.613 97.1813 113.58 83.5544 111.869 79.6445Z" fill="#461B2C" fill-opacity="0.054902"/>
<path d="M0 79.4045C6.33615 78.577 14.5034 78.8652 21.0185 78.8787L51.2885 78.8904L89.0092 78.8981C95.4263 78.9022 104.592 78.6504 110.831 79.1962C110.95 86.7969 111.219 96.3368 110.798 103.858C100.567 104.927 5.82532 105.044 0 103.389V79.4045Z" fill="#A12025"/>
<path d="M4.24405 7.8418C12.7203 8.83492 35.6142 8.35526 44.9315 8.27398C66.3445 8.08723 89.2981 8.71232 110.576 8.09204L111.116 12.4742C110.788 16.8606 110.931 21.1237 111.013 25.5158C111.018 27.7934 111.286 30.5517 110.18 32.4732C108.442 33.643 7.5399 33.6636 0 32.694V8.61854L4.24405 7.8418Z" fill="#A12025"/>
<path d="M2.989 147.375L74.1281 147.358C85.5106 147.36 99.6223 146.961 110.821 147.421C110.861 151.808 110.702 166.963 111.201 170.478C110.19 171.712 110.029 172.374 108.326 172.39C104.06 172.431 99.6328 172.417 95.383 172.418L67.7637 172.408L27.9271 172.372C21.4506 172.372 5.46877 172.824 0 171.421V148.14L2.989 147.375Z" fill="#A12025"/>
<path d="M9.82128 5.83515C20.2779 5.81376 103.611 4.64063 106.948 7.23031C107.55 7.69718 108.734 7.8294 109.481 7.9969L110.576 8.09092C89.2981 8.7112 66.3446 8.08611 44.9316 8.27285C35.6143 8.35414 12.7204 8.8338 4.24414 7.84067C4.34421 7.76062 7.16575 7.06358 7.60228 6.93141C7.92038 6.44477 9.21144 6.06546 9.82128 5.83515Z" fill="#461B2C" fill-opacity="0.152941"/>
<path d="M2.99008 147.374L1.8418 146.36L1.85746 145.715C6.51179 145.3 13.9215 145.539 18.895 145.535L50.392 145.523C67.7736 145.52 95.3823 144.687 112.026 145.799C114.632 148.034 113.715 160.777 113.6 164.316L113.24 164.454L112.724 164.121C112.483 161.78 112.208 159.443 111.899 157.112C111.885 155.985 111.973 150.495 111.779 149.824C111.529 154.529 111.895 166.876 111.202 170.477C110.703 166.962 110.862 151.807 110.822 147.419C99.6234 146.96 85.5116 147.359 74.1292 147.356L2.99008 147.374Z" fill="#481C2C" fill-opacity="0.01"/>
<path d="M9.66406 5.13309C19.1964 4.86204 106.689 4.35673 110.229 5.73009L110.441 6.76774L109.479 7.99896C108.732 7.83146 107.548 7.69924 106.947 7.23237C103.609 4.64269 20.2762 5.81582 9.81951 5.83721L9.66406 5.13309Z" fill="#461B2C" fill-opacity="0.0431373"/>
<path d="M111.115 12.4736C111.944 13.8175 111.664 17.4645 111.639 19.2249C111.76 17.5148 111.83 13.9423 112.616 12.6194L113.318 13.0535C114.226 17.2919 113.79 28.5658 112.606 32.7884L112.089 33.1708C111.327 30.9214 111.206 27.9334 111.012 25.5152C110.93 21.1231 110.787 16.86 111.115 12.4736Z" fill="#461A2D" fill-opacity="0.0431373"/>
<path d="M0 5.59552C2.79147 5.6908 7.65422 4.81705 9.66574 5.13087L9.82119 5.83499C9.21135 6.0653 7.92029 6.44461 7.60219 6.93125C7.16566 7.06342 4.34412 7.76046 4.24405 7.84051L0 8.61726V5.59552Z" fill="#461B2C" fill-opacity="0.027451"/>
<path d="M111.899 157.114C112.208 159.446 112.483 161.783 112.724 164.123L113.24 164.457L113.601 164.318C113.886 166.655 113.816 166.268 113.295 168.451L112.903 168.267C111.296 163.543 111.597 162.025 111.899 157.114Z" fill="#461B2C" fill-opacity="0.0431373"/>
</svg>
